# xmcd
# Copyright (c) 1998 CDDB Inc.
#
# Track frame offsets:
#	150
#	19588
#	37282
#	58226
#	76012
#	94296
#	114827
#	130342
#	148855
#	166114
#	182053
#	198291
#	223408
#
# Disc length: 3347 seconds
#
# Revision: 1
# Processed by: cddbd v1.4b41PL1 Copyright (c) Steve Scherf et al.
# Submitted via: audiograbber 1.70
#
DISCID=ba0d110d
DTITLE=Craig David - Born to do it
DYEAR=1900
DGENRE=
TTITLE0=Fill Me in
TTITLE1=Cant be messin' round
TTITLE2=Rendezvous
TTITLE3=7 Days
TTITLE4=Follow me
TTITLE5=Last Night
TTITLE6=Walking away
TTITLE7=Time to party
TTITLE8=Booty man
TTITLE9=Once in a lifetime
TTITLE10=You know what
TTITLE11=Rewind
TTITLE12=Bonus track - 7 Days Sunship mix
EXTD=
EXTT0=
EXTT1=
EXTT2=
EXTT3=
EXTT4=
EXTT5=
EXTT6=
EXTT7=
EXTT8=
EXTT9=
EXTT10=
EXTT11=
EXTT12=
PLAYORDER=
